<mxfile host="app.diagrams.net" agent="Mozilla/5.0 (Windows NT 10.0; Win64; x64) AppleWebKit/537.36 (KHTML, like Gecko) Chrome/139.0.0.0 Safari/537.36 Edg/139.0.0.0" version="28.1.0">
  <diagram name="Page-1" id="oaaE9jaXUYO_B28BWCYS">
    <mxGraphModel dx="925" dy="551" grid="1" gridSize="10" guides="1" tooltips="1" connect="1" arrows="1" fold="1" page="1" pageScale="1" pageWidth="850" pageHeight="1100" math="0" shadow="0">
      <root>
        <mxCell id="0" />
        <mxCell id="1" parent="0" />
        <mxCell id="LGEPYzfLsvKDmyo7JmHo-1" value="&lt;b&gt;Kubernetes&lt;/b&gt;" style="whiteSpace=wrap;html=1;aspect=fixed;fillColor=#d5e8d4;verticalAlign=top;rounded=1;arcSize=6;strokeColor=#82b366;" vertex="1" parent="1">
          <mxGeometry x="70" y="100" width="420" height="420" as="geometry" />
        </mxCell>
        <mxCell id="LGEPYzfLsvKDmyo7JmHo-2" value="Control Plan" style="rounded=0;whiteSpace=wrap;html=1;fillColor=#fff2cc;verticalAlign=top;strokeColor=#d6b656;" vertex="1" parent="1">
          <mxGeometry x="90" y="140" width="380" height="150" as="geometry" />
        </mxCell>
        <mxCell id="LGEPYzfLsvKDmyo7JmHo-3" value="Worker" style="rounded=0;whiteSpace=wrap;html=1;fillColor=#ffe6cc;verticalAlign=top;strokeColor=#d79b00;" vertex="1" parent="1">
          <mxGeometry x="90" y="330" width="380" height="150" as="geometry" />
        </mxCell>
        <mxCell id="LGEPYzfLsvKDmyo7JmHo-4" value="Kube Proxy" style="rounded=0;whiteSpace=wrap;html=1;fillColor=none;" vertex="1" parent="1">
          <mxGeometry x="110" y="380" width="120" height="60" as="geometry" />
        </mxCell>
        <mxCell id="LGEPYzfLsvKDmyo7JmHo-5" value="Kubelet" style="rounded=0;whiteSpace=wrap;html=1;fillColor=none;" vertex="1" parent="1">
          <mxGeometry x="260" y="380" width="120" height="60" as="geometry" />
        </mxCell>
        <mxCell id="LGEPYzfLsvKDmyo7JmHo-6" value="API GW" style="rounded=0;whiteSpace=wrap;html=1;" vertex="1" parent="1">
          <mxGeometry x="110" y="190" width="80" height="60" as="geometry" />
        </mxCell>
        <mxCell id="LGEPYzfLsvKDmyo7JmHo-7" value="Controller" style="rounded=0;whiteSpace=wrap;html=1;" vertex="1" parent="1">
          <mxGeometry x="210" y="190" width="80" height="60" as="geometry" />
        </mxCell>
        <mxCell id="LGEPYzfLsvKDmyo7JmHo-8" value="Etcd" style="rounded=0;whiteSpace=wrap;html=1;" vertex="1" parent="1">
          <mxGeometry x="310" y="190" width="80" height="60" as="geometry" />
        </mxCell>
      </root>
    </mxGraphModel>
  </diagram>
</mxfile>
